<svg width="50" height="51" viewBox="0 0 50 51" fill="none" xmlns="http://www.w3.org/2000/svg">
<g clip-path="url(#clip0_402_904)">
<path d="M25 50.6364C38.8071 50.6364 50 39.4435 50 25.6364C50 11.8292 38.8071 0.636353 25 0.636353C11.1929 0.636353 0 11.8292 0 25.6364C0 39.4435 11.1929 50.6364 25 50.6364Z" fill="#F0F0F0"/>
<path d="M50 25.6364C50 15.7248 44.2319 7.16077 35.8695 3.11702V48.1556C44.2319 44.1119 50 35.5479 50 25.6364V25.6364Z" fill="#D80027"/>
<path d="M0 25.6364C0 35.5479 5.76807 44.1119 14.1305 48.1557V3.11702C5.76807 7.16077 0 15.7248 0 25.6364Z" fill="#D80027"/>
<path d="M29.3479 28.8972L33.6956 26.7233L31.5218 25.6364V23.4624L27.1739 25.6364L29.3479 21.2885H27.1739L25 18.0277L22.8261 21.2885H20.6522L22.8261 25.6364L18.4782 23.4624V25.6364L16.3044 26.7233L20.6522 28.8972L19.5652 31.0711H23.9131V34.332H26.0869V31.0711H30.4348L29.3479 28.8972Z" fill="#D80027"/>
</g>
<defs>
<clipPath id="clip0_402_904">
<rect width="50" height="50" fill="white" transform="translate(0 0.636353)"/>
</clipPath>
</defs>
</svg>
